<?xml version="1.0" encoding="UTF-8"?>
<svg id="Capa_1" data-name="Capa 1" xmlns="http://www.w3.org/2000/svg" viewBox="0 0 1024 345">
  <defs>
    <style>
      .cls-1 {
        stroke-width: .25px;
      }

      .cls-1, .cls-2 {
        stroke: #fff;
      }

      .cls-1, .cls-2, .cls-3 {
        fill: #fff;
      }

      .cls-1, .cls-2, .cls-4 {
        stroke-miterlimit: 10;
      }

      .cls-2 {
        stroke-width: .37px;
      }

      .cls-3 {
        stroke-width: 0px;
      }

      .cls-4 {
        fill: #ef7e04;
        stroke: #ef7e04;
        stroke-width: 4.22px;
      }
    </style>
  </defs>
  <g>
    <path class="cls-1" d="m715.87,243.15c0-5.54,3.91-9.42,9.45-9.42s9.56,3.89,9.56,9.42-3.73,9.35-8.98,9.35c-3.15,0-5.72-1.47-7.06-3.85v9.25c0,.77-.69,1.44-1.48,1.44s-1.48-.67-1.48-1.44v-14.75Zm2.9,0c0,3.99,2.75,6.76,6.56,6.76s6.63-2.77,6.63-6.76-2.72-6.83-6.63-6.83-6.56,2.77-6.56,6.83Z"/>
    <path class="cls-1" d="m747.46,233.76c.72,0,1.3.56,1.3,1.26s-.58,1.26-1.3,1.26h-1.23c-3.37,0-5.22,2.21-5.22,5.57v9.7c0,.25-.22.42-.47.42h-2.06c-.25,0-.47-.18-.47-.42v-9.77c0-4.9,3.01-8.02,8.26-8.02h1.2Z"/>
    <path class="cls-1" d="m749.48,243.08c0-5.47,3.91-9.35,9.49-9.35s9.53,3.89,9.53,9.35-3.95,9.42-9.53,9.42-9.49-3.89-9.49-9.42Zm16.12,0c0-3.99-2.75-6.76-6.63-6.76s-6.59,2.77-6.59,6.76,2.75,6.83,6.59,6.83,6.63-2.77,6.63-6.83Z"/>
    <path class="cls-1" d="m771.54,243.15c0-5.54,3.91-9.42,9.45-9.42s9.56,3.89,9.56,9.42-3.73,9.35-8.98,9.35c-3.15,0-5.72-1.47-7.06-3.85v9.25c0,.77-.69,1.44-1.49,1.44s-1.48-.67-1.48-1.44v-14.75Zm2.9,0c0,3.99,2.75,6.76,6.56,6.76s6.63-2.77,6.63-6.76-2.72-6.83-6.63-6.83-6.56,2.77-6.56,6.83Z"/>
    <path class="cls-1" d="m795.48,227.14c1.05,0,1.92.88,1.92,1.89s-.87,1.89-1.92,1.89c-1.12,0-1.99-.84-1.99-1.89s.87-1.89,1.99-1.89Zm-1.52,8.06c0-.77.69-1.44,1.52-1.44s1.45.67,1.45,1.44v16.36c0,.25-.18.42-.43.42h-2.1c-.22,0-.43-.18-.43-.42v-16.36Z"/>
    <path class="cls-1" d="m803.31,244.16c.47,3.43,3.04,5.71,6.52,5.71,1.81,0,3.4-.35,4.74-1.16.4-.21.76-.32,1.05-.32.76,0,1.3.56,1.3,1.23,0,.46-.29.95-.87,1.33-1.88,1.12-3.95,1.51-6.23,1.51-5.58,0-9.49-3.89-9.49-9.39s3.77-9.35,9.13-9.35,8.91,3.71,8.91,8.97c0,1.16-.87,1.47-1.48,1.47h-13.58Zm0-2.1h12.13c-.25-3.4-2.68-5.75-5.98-5.75s-5.76,2.31-6.16,5.75Z"/>
    <path class="cls-1" d="m839.78,243.08c0,5.54-3.91,9.42-9.49,9.42s-9.53-3.89-9.53-9.42,3.73-9.35,8.98-9.35c3.15,0,5.72,1.47,7.06,3.85v-9.25c0-.77.69-1.44,1.49-1.44s1.48.67,1.48,1.44v14.75Zm-2.9,0c0-3.99-2.75-6.76-6.59-6.76s-6.63,2.77-6.63,6.76,2.75,6.83,6.63,6.83,6.59-2.77,6.59-6.83Z"/>
    <path class="cls-1" d="m861.84,251.55c0,.25-.22.42-.43.42h-2.1c-.22,0-.43-.18-.43-.42v-3.01c-1.34,2.42-3.91,3.92-7.1,3.92-5.25,0-8.95-3.89-8.95-9.39s3.69-9.35,8.95-9.35c3.19,0,5.76,1.51,7.1,3.89v-2.49c0-.81.72-1.4,1.49-1.4.83,0,1.48.67,1.48,1.44v16.4Zm-9.49-15.24c-3.88,0-6.63,2.77-6.63,6.76s2.75,6.8,6.63,6.8,6.59-2.77,6.59-6.8-2.75-6.76-6.59-6.76Z"/>
    <path class="cls-1" d="m883.96,243.08c0,5.54-3.91,9.42-9.49,9.42s-9.53-3.89-9.53-9.42,3.73-9.35,8.98-9.35c3.15,0,5.72,1.47,7.06,3.85v-9.25c0-.77.69-1.44,1.49-1.44s1.48.67,1.48,1.44v14.75Zm-2.9,0c0-3.99-2.75-6.76-6.59-6.76s-6.63,2.77-6.63,6.76,2.75,6.83,6.63,6.83,6.59-2.77,6.59-6.83Z"/>
    <path class="cls-1" d="m889.98,244.16c.47,3.43,3.04,5.71,6.52,5.71,1.81,0,3.4-.35,4.74-1.16.4-.21.76-.32,1.05-.32.76,0,1.3.56,1.3,1.23,0,.46-.29.95-.87,1.33-1.88,1.12-3.95,1.51-6.23,1.51-5.58,0-9.49-3.89-9.49-9.39s3.77-9.35,9.13-9.35,8.91,3.71,8.91,8.97c0,1.16-.87,1.47-1.48,1.47h-13.58Zm0-2.1h12.13c-.25-3.4-2.68-5.75-5.98-5.75s-5.76,2.31-6.16,5.75Z"/>
    <path class="cls-1" d="m919.17,236.35c0,.67-.51,1.23-1.23,1.23-.33,0-.65-.11-1.01-.32-1.09-.6-2.32-.95-3.69-.95-1.99,0-3.08,1.09-3.08,2.35,0,3.82,9.71,2.1,9.71,8.58,0,3.05-2.43,5.29-6.63,5.29-2.03,0-3.88-.35-5.47-1.3-.58-.39-.87-.88-.87-1.33,0-.67.54-1.23,1.3-1.23.29,0,.65.11,1.05.32,1.16.63,2.5.95,3.98.95,2.46,0,3.73-1.33,3.73-2.63,0-4.2-9.71-2.45-9.71-8.58,0-2.87,2.17-5.01,5.98-5.01,1.45,0,5.94.6,5.94,2.63Z"/>
  </g>
  <path class="cls-1" d="m365.26,218.15c0,2.54-2.22,4.69-4.85,4.69h-23.45c-2.43,0-4.85-2.15-4.85-4.69v-5.28c-7.88,8.02-18.6,12.51-31.13,12.51-27.29,0-46.7-21.71-46.7-52.41s19.41-52.21,46.7-52.21c12.94,0,24.46,4.69,31.94,12.91,1.21-7.43,7.28-12.51,15.77-12.51,9.1,0,16.58,7.04,16.58,15.84v81.15Zm-55.39-69.22c-13.54,0-23.25,9.97-23.25,24.05s9.7,24.05,23.25,24.05,22.84-9.78,22.84-24.05-9.5-24.05-22.84-24.05Z"/>
  <path class="cls-1" d="m448.55,166.92c0-10.95-7.28-18.58-17.59-18.58s-17.59,7.63-17.59,18.58v51.04c0,2.54-2.22,4.69-4.65,4.69h-23.45c-2.63,0-4.85-2.15-4.85-4.69v-81.15c0-8.6,7.48-15.84,16.78-15.84,7.28,0,13.75,4.89,15.77,11.73,7.08-7.63,17.59-11.93,29.72-11.93,22.84,0,38.81,16.82,38.81,41.06v56.12c0,2.54-2.22,4.69-4.85,4.69h-23.25c-2.63,0-4.85-2.15-4.85-4.69v-51.04Z"/>
  <path class="cls-1" d="m549.83,120.77c12.53,0,39.62,4.5,39.62,20.92,0,7.43-6.47,13.88-14.96,13.88-3.03,0-6.67-.78-10.31-2.93-4.85-2.74-9.1-3.72-14.35-3.72-13.34,0-23.05,9.97-23.05,24.05s9.7,24.05,23.05,24.05c5.26,0,9.7-.98,14.35-3.72,3.64-2.15,7.28-2.93,10.31-2.93,8.49,0,14.96,6.45,14.96,13.88,0,16.43-27.09,20.92-39.62,20.92-32.55,0-55.39-21.71-55.39-52.21s22.84-52.21,55.39-52.21Z"/>
  <path class="cls-1" d="m630.49,181.98c3.23,10.95,12.13,17.79,23.85,17.79,6.47,0,12.13-1.17,17.59-3.91,4.25-1.96,7.68-3.32,11.72-3.32,7.28,0,12.74,5.28,12.74,12.32,0,16.82-29.11,20.34-41.64,20.34-32.95,0-56-21.51-56-52.21s21.43-52.21,52.76-52.21,51.14,20.73,51.14,47.71c0,10.56-7.48,13.49-14.96,13.49h-57.21Zm.2-18.77h42.05c-2.02-10.17-10.11-16.82-20.82-16.82s-18.19,6.26-21.23,16.82Z"/>
  <path class="cls-1" d="m777.86,164.96c0-9.78-6.06-16.62-14.35-16.62s-14.35,6.84-14.35,16.62v52.99c0,2.54-2.22,4.69-4.65,4.69h-23.45c-2.63,0-4.85-2.15-4.85-4.69v-81.15c0-8.6,7.48-15.84,16.78-15.84,6.87,0,12.94,4.5,15.36,10.56,6.47-6.84,15.57-10.75,26.08-10.75,13.54,0,24.46,6.45,30.73,17.01,6.27-10.56,17.39-17.01,30.93-17.01,21.43,0,36.39,16.43,36.39,39.89v57.29c0,2.54-2.22,4.69-4.85,4.69h-23.45c-2.43,0-4.65-2.15-4.65-4.69v-52.99c0-9.78-6.06-16.62-14.35-16.62s-14.35,6.84-14.35,16.62v52.99c0,2.54-2.22,4.69-4.85,4.69h-23.25c-2.63,0-4.85-2.15-4.85-4.69v-52.99Z"/>
  <path class="cls-1" d="m905.21,76.78c10.11,0,18.4,8.02,18.4,17.79s-8.29,17.79-18.4,17.79-18.6-8.02-18.6-17.79,8.29-17.79,18.6-17.79Z"/>
  <path class="cls-1" d="m888.91,120.51c12.86-.16,19.24-.08,32.78,0l-.1,97.45c0,2.54-2.22,4.69-4.65,4.69h-28.3l.27-102.14Z"/>
  <g>
    <path class="cls-4" d="m185.5,111.6c-33.46.68-60.65,23.58-65.09,51.1-5.36,33.25,23.21,68.84,64.62,71.03"/>
    <rect class="cls-3" x="160.78" y="130.77" width="11.84" height="11.45" rx="2.03" ry="2.03"/>
    <rect class="cls-3" x="160.78" y="164.14" width="11.84" height="11.45" rx="2.03" ry="2.03"/>
    <rect class="cls-3" x="160.78" y="197.85" width="11.84" height="11.45" rx="2.03" ry="2.03"/>
    <rect class="cls-3" x="139.87" y="149.12" width="11.84" height="11.45" rx="2.03" ry="2.03"/>
    <rect class="cls-3" x="139.87" y="179.89" width="11.84" height="11.45" rx="2.03" ry="2.03"/>
  </g>
  <path class="cls-2" d="m181.91,64.65c23.65,0,44.57,5.87,61.56,16.43,24.26,12.32,24.86,39.01,10.92,48.98-4.85,3.52-10.01,4.99-14.86,4.99-8.79,0-17.28-4.69-24.56-9.68-9.1-6.45-20.32-9.97-33.05-9.97-32.75,0-56.1,23.47-56.1,56.32s23.35,56.32,56.1,56.32c12.74,0,23.96-3.52,33.05-9.97,7.28-4.99,15.77-9.68,24.56-9.68,4.85,0,10.01,1.47,14.86,4.99,13.95,9.97,13.34,36.66-10.92,48.98-16.98,10.56-37.9,16.43-61.56,16.43-66.71,0-113.41-44.29-113.41-107.06s46.7-107.06,113.41-107.06Z"/>
</svg>